PathFileType	4	(X/Y/Z)	Patient5_TMGait_0pt45_1_left_05.trc.trc
DataRate	CameraRate	NumFrames	NumMarkers	Units	OrigDataRate	OrigDataStartFrame	OrigNumFrames
57.851239669421	57.851239669421	4	32	mm	57.851239669421	53	       141
Frame#	Time	R.ASIS			L.ASIS			Chest			R.Shoulder			Neck			L.Shoulder			L.Elbow			L.Wrist			R.Elbow			R.Wrist			L.Thigh.Superior			L.Thigh.Lateral			L.Thigh.Inferior			L.Patella			L.Shank.Superior			L.Shank.Lateral			L.Shank.Inferior			L.Heel			L.Midfoot.Lateral			L.Midfoot.Superior			L.Toe			R.Thigh.Superior			R.Thigh.Lateral			R.Thigh.Inferior			R.Patella			R.Shank.Superior			R.Shank.Lateral			R.Shank.Inferior			R.Heel			R.Midfoot.Lateral			R.Midfoot.Superior			R.Toe			
		X1	Y1	Z1	X2	Y2	Z2	X3	Y3	Z3	X4	Y4	Z4	X5	Y5	Z5	X6	Y6	Z6	X7	Y7	Z7	X8	Y8	Z8	X9	Y9	Z9	X10	Y10	Z10	X11	Y11	Z11	X12	Y12	Z12	X13	Y13	Z13	X14	Y14	Z14	X15	Y15	Z15	X16	Y16	Z16	X17	Y17	Z17	X18	Y18	Z18	X19	Y19	Z19	X20	Y20	Z20	X21	Y21	Z21	X22	Y22	Z22	X23	Y23	Z23	X24	Y24	Z24	X25	Y25	Z25	X26	Y26	Z26	X27	Y27	Z27	X28	Y28	Z28	X29	Y29	Z29	X30	Y30	Z30	X31	Y31	Z31	X32	Y32	Z32	

53	7.698857142857	940.565517294806	1014.333419098749	528.108549081474	974.272049379212	963.679314393604	286.589362585753	1038.839543787770	1444.203570583624	428.267790430468	903.875606329969	1508.999177887973	566.399367943004	926.858850834772	1571.305386968078	384.163593246271	1034.330549832117	1518.044952521400	227.457967527815	1010.370792119791	1199.002659040088	79.118919394317	1167.089542144574	960.577569554257	102.483016598305	784.233506027823	1188.089816858172	675.450533351849	993.465209496969	987.185141827027	663.824818945056	992.465137313294	746.142393515397	292.951240615573	923.466799118100	673.540076796241	250.521832504017	989.553026376024	620.514162550268	325.111443152052	989.989951358375	505.906961094879	339.783823896046	942.256729540062	403.545930035046	360.273537002914	886.050803259762	330.190867363282	277.145347478259	908.182055946974	280.966579807972	371.352281413783	776.215109732197	50.085680054323	376.312822163602	864.996850462740	27.116348515554	315.826224704854	961.913472562916	88.790072265953	361.435942104588	1069.736657941989	45.136848741836	365.205512287048	969.654817250385	791.090424492028	576.286537191300	887.258984872850	718.392046638256	638.347302080739	977.396707242128	657.703434055406	584.803063563887	973.273641783222	554.055268031022	631.009334045822	886.305623463135	459.192654887189	597.577379004161	783.690462613706	441.448127214128	675.000700528007	801.554012177379	345.329567276470	602.328936400734	591.046103286659	223.116319998957	570.437144091454	625.593054844940	147.946117705183	643.811791719635	751.392520618678	138.258518978587	640.569754668232	807.292221448760	42.085165985701	641.471340485454	
54	7.716142857143	938.233461841016	1015.410431062516	525.822050077401	971.934311270550	963.806235194227	284.907309248769	1036.785888372606	1444.669410773148	426.148228671542	901.509567489987	1509.405889686344	563.871458609141	925.051658445518	1571.772667450875	381.760075055348	1033.050619941413	1518.534421327513	225.525655258537	1011.364048836804	1199.164586174019	77.429150688271	1169.513428138335	961.849949707505	102.178783636051	781.478569477985	1188.372978676758	672.269174461164	990.635164911677	987.386785908541	660.317433935810	988.396181112605	745.781082856569	290.954165571951	918.057099406659	673.899514618621	249.299767123619	984.519049610599	620.049024174728	322.663824595541	983.836349528312	505.270760224551	336.842803531592	935.614798610754	403.502545816131	358.061778351675	877.688037966536	330.412192302325	275.922716078753	901.200710587204	281.019510994342	369.686989699273	768.414363840736	50.068686015450	376.273472609384	857.181082973408	27.044826358418	315.708572460112	954.254507929411	88.822347775686	360.962232484927	1061.889655047879	45.131700979606	365.107576965176	967.677320666745	792.610937748594	575.537463912583	885.630912837052	720.265733199286	637.323750344747	975.674278649702	659.743531886356	584.045533084182	972.644862178809	557.223150983237	631.396271737403	889.992227735604	460.164424170721	599.194872979953	787.293125642550	439.270113816003	675.169273585171	810.969314721508	342.820436595713	605.271428265094	607.671890090669	207.194225879476	572.279163789444	645.232413773370	137.716484912278	649.709020516473	771.112250519024	135.979123883157	649.240676643041	832.835313694879	43.873016145768	655.835462356706	
55	7.733428571429	935.757335462181	1016.292954065654	523.883949186903	969.536095345651	963.872373995989	283.387143499598	1034.644452043738	1444.998444211761	424.092565337137	899.122841461003	1509.809661546342	561.428366175962	923.165349703687	1572.136458845679	379.384898693475	1031.677971919642	1518.816052742090	223.646891544971	1012.188178565276	1199.112429474062	75.905939351270	1171.371329659883	962.663039384419	102.084898350968	778.640587195077	1188.713629563664	669.276804802841	987.781204398328	987.711314007147	657.046359825139	984.324222740814	745.442015178136	289.250117860815	912.772486426675	674.186880884273	248.317228362298	979.490583600572	619.577101735360	320.476809981273	977.696116242643	504.649800534283	334.176440060267	928.982841995794	403.456586752341	356.062748573228	869.417528866770	330.655242498918	274.943535225126	894.250279684148	281.079543760042	368.175076200732	760.615849891066	50.003257714987	376.308282604838	849.377802068001	26.988436978302	315.623656633320	946.581582932109	88.848145892352	360.551774869490	1054.054542624529	45.134019098460	365.017422591683	965.158608807041	794.065269502651	575.464613004890	883.336668881579	721.974531080924	636.567244524011	973.661698066316	661.822277060412	583.976965530349	971.922690099793	560.581382851677	632.516567209137	894.616793201169	461.186028598855	601.157699120823	791.844572662759	436.334891082697	675.226157531685	822.378805385456	340.107425060348	608.365347217086	628.272450203081	190.197732081153	573.777322892745	668.559876760648	126.666868013288	655.134148274253	794.020807285626	133.668484692969	657.791199358571	861.751003712394	46.391871514534	670.030898373101	
56	7.750714285714	933.201295767586	1017.015211513711	522.394782265725	967.099309770902	963.862246522761	282.055140523128	1032.383685889014	1445.209063054788	422.118916296880	896.665706950504	1510.214619617175	559.081025158460	921.172948593599	1572.402857348566	377.062723220453	1030.159483911995	1518.902256883830	221.822755642810	1012.815468981411	1198.836841990175	74.585924994165	1172.670735636780	963.016775280802	102.167076605523	775.719419807542	1189.102162535891	666.499274247682	984.914315079310	988.160997498532	654.042212627465	980.265943688608	745.118746308772	287.890992934234	907.647258235993	674.429863001704	247.545759004987	974.455040634629	619.095917064278	318.608176231569	971.551728222345	504.055576686161	331.841207668385	922.355554611206	403.405379984794	354.310291826008	861.282656389355	330.913303778679	274.185428448682	887.341784792398	281.152189053184	366.863651966646	752.819728599686	49.912501952694	376.393350718123	841.582962056398	26.945054291568	315.568582334183	938.890000225099	88.858421431427	360.209926712379	1046.228281688159	45.141084592832	364.936902280949	962.339535467806	795.541688995836	576.010466776002	880.656444679479	723.514681468506	636.124612916451	971.642732535856	664.008626434699	584.567618172782	971.443969447116	564.133733655670	634.312176965880	900.253278080983	462.434692940819	603.342609683741	797.556194069512	432.964955687390	675.208222472416	835.582674332337	337.641102919479	611.430547141300	652.327641188503	173.442088131073	574.956001675759	694.980948567213	115.695429785755	659.743090415055	819.404905310399	131.810734783847	665.623663738402	892.988049581479	49.949566976970	682.965376372220	
